<mxfile host="app.diagrams.net" modified="2023-11-27T20:43:34.182Z" agent="Mozilla/5.0 (Macintosh; Intel Mac OS X 10_15_7) AppleWebKit/537.36 (KHTML, like Gecko) Chrome/116.0.0.0 Safari/537.36" etag="7muDKxQb3vnXG89Imjvq" version="22.1.4" type="device">
  <diagram name="Page-1" id="18EpJnspM68TObBnQlz2">
    <mxGraphModel dx="1059" dy="644" grid="1" gridSize="10" guides="1" tooltips="1" connect="1" arrows="1" fold="1" page="1" pageScale="1" pageWidth="850" pageHeight="1100" math="0" shadow="0">
      <root>
        <mxCell id="0" />
        <mxCell id="1" parent="0" />
        <mxCell id="Vh-mc57jUNbCQ79QE870-1" value="Candidate" style="swimlane;fontStyle=0;childLayout=stackLayout;horizontal=1;startSize=26;horizontalStack=0;resizeParent=1;resizeParentMax=0;resizeLast=0;collapsible=1;marginBottom=0;align=center;fontSize=14;" parent="1" vertex="1">
          <mxGeometry x="500" y="283" width="160" height="206" as="geometry" />
        </mxCell>
        <mxCell id="Vh-mc57jUNbCQ79QE870-2" value="&lt;b&gt;&lt;u&gt;Candidate_Name&lt;/u&gt;&lt;/b&gt;" style="text;strokeColor=none;fillColor=none;spacingLeft=4;spacingRight=4;overflow=hidden;rotatable=0;points=[[0,0.5],[1,0.5]];portConstraint=eastwest;fontSize=12;whiteSpace=wrap;html=1;" parent="Vh-mc57jUNbCQ79QE870-1" vertex="1">
          <mxGeometry y="26" width="160" height="30" as="geometry" />
        </mxCell>
        <mxCell id="Vh-mc57jUNbCQ79QE870-3" value="Resume&lt;br&gt;" style="text;strokeColor=none;fillColor=none;spacingLeft=4;spacingRight=4;overflow=hidden;rotatable=0;points=[[0,0.5],[1,0.5]];portConstraint=eastwest;fontSize=12;whiteSpace=wrap;html=1;" parent="Vh-mc57jUNbCQ79QE870-1" vertex="1">
          <mxGeometry y="56" width="160" height="30" as="geometry" />
        </mxCell>
        <mxCell id="Vh-mc57jUNbCQ79QE870-4" value="Residential Address" style="text;strokeColor=none;fillColor=none;spacingLeft=4;spacingRight=4;overflow=hidden;rotatable=0;points=[[0,0.5],[1,0.5]];portConstraint=eastwest;fontSize=12;whiteSpace=wrap;html=1;" parent="Vh-mc57jUNbCQ79QE870-1" vertex="1">
          <mxGeometry y="86" width="160" height="30" as="geometry" />
        </mxCell>
        <mxCell id="Vh-mc57jUNbCQ79QE870-5" value="Email Address" style="text;strokeColor=none;fillColor=none;spacingLeft=4;spacingRight=4;overflow=hidden;rotatable=0;points=[[0,0.5],[1,0.5]];portConstraint=eastwest;fontSize=12;whiteSpace=wrap;html=1;" parent="Vh-mc57jUNbCQ79QE870-1" vertex="1">
          <mxGeometry y="116" width="160" height="30" as="geometry" />
        </mxCell>
        <mxCell id="Vh-mc57jUNbCQ79QE870-6" value="Date of Birth" style="text;strokeColor=none;fillColor=none;spacingLeft=4;spacingRight=4;overflow=hidden;rotatable=0;points=[[0,0.5],[1,0.5]];portConstraint=eastwest;fontSize=12;whiteSpace=wrap;html=1;" parent="Vh-mc57jUNbCQ79QE870-1" vertex="1">
          <mxGeometry y="146" width="160" height="30" as="geometry" />
        </mxCell>
        <mxCell id="Vh-mc57jUNbCQ79QE870-50" value="&lt;b&gt;Job Application&lt;/b&gt;" style="text;strokeColor=none;fillColor=none;spacingLeft=4;spacingRight=4;overflow=hidden;rotatable=0;points=[[0,0.5],[1,0.5]];portConstraint=eastwest;fontSize=12;whiteSpace=wrap;html=1;" parent="Vh-mc57jUNbCQ79QE870-1" vertex="1">
          <mxGeometry y="176" width="160" height="30" as="geometry" />
        </mxCell>
        <mxCell id="Vh-mc57jUNbCQ79QE870-12" value="Job Opening" style="swimlane;fontStyle=0;childLayout=stackLayout;horizontal=1;startSize=26;horizontalStack=0;resizeParent=1;resizeParentMax=0;resizeLast=0;collapsible=1;marginBottom=0;align=center;fontSize=14;" parent="1" vertex="1">
          <mxGeometry x="240" y="281" width="160" height="116" as="geometry" />
        </mxCell>
        <mxCell id="Vh-mc57jUNbCQ79QE870-13" value="&lt;b&gt;&lt;u&gt;Req_ID&lt;/u&gt;&lt;/b&gt;" style="text;strokeColor=none;fillColor=none;spacingLeft=4;spacingRight=4;overflow=hidden;rotatable=0;points=[[0,0.5],[1,0.5]];portConstraint=eastwest;fontSize=12;whiteSpace=wrap;html=1;" parent="Vh-mc57jUNbCQ79QE870-12" vertex="1">
          <mxGeometry y="26" width="160" height="30" as="geometry" />
        </mxCell>
        <mxCell id="Vh-mc57jUNbCQ79QE870-14" value="Job Description" style="text;strokeColor=none;fillColor=none;spacingLeft=4;spacingRight=4;overflow=hidden;rotatable=0;points=[[0,0.5],[1,0.5]];portConstraint=eastwest;fontSize=12;whiteSpace=wrap;html=1;" parent="Vh-mc57jUNbCQ79QE870-12" vertex="1">
          <mxGeometry y="56" width="160" height="30" as="geometry" />
        </mxCell>
        <mxCell id="Vh-mc57jUNbCQ79QE870-15" value="&lt;b&gt;Job_Category&lt;/b&gt;" style="text;strokeColor=none;fillColor=none;spacingLeft=4;spacingRight=4;overflow=hidden;rotatable=0;points=[[0,0.5],[1,0.5]];portConstraint=eastwest;fontSize=12;whiteSpace=wrap;html=1;" parent="Vh-mc57jUNbCQ79QE870-12" vertex="1">
          <mxGeometry y="86" width="160" height="30" as="geometry" />
        </mxCell>
        <mxCell id="Vh-mc57jUNbCQ79QE870-16" value="" style="shape=link;html=1;rounded=0;entryX=0.493;entryY=1.133;entryDx=0;entryDy=0;entryPerimeter=0;" parent="1" edge="1">
          <mxGeometry width="100" relative="1" as="geometry">
            <mxPoint x="319.82" y="457.01" as="sourcePoint" />
            <mxPoint x="319.7" y="397" as="targetPoint" />
          </mxGeometry>
        </mxCell>
        <mxCell id="Vh-mc57jUNbCQ79QE870-17" value="d" style="ellipse;whiteSpace=wrap;html=1;aspect=fixed;" parent="1" vertex="1">
          <mxGeometry x="300" y="441" width="40" height="40" as="geometry" />
        </mxCell>
        <mxCell id="Vh-mc57jUNbCQ79QE870-18" value="Job_Category=" style="text;html=1;align=center;verticalAlign=middle;resizable=0;points=[];autosize=1;strokeColor=none;fillColor=none;" parent="1" vertex="1">
          <mxGeometry x="320" y="404" width="110" height="30" as="geometry" />
        </mxCell>
        <mxCell id="Vh-mc57jUNbCQ79QE870-19" value="Tech" style="rounded=0;whiteSpace=wrap;html=1;" parent="1" vertex="1">
          <mxGeometry x="160" y="521" width="80" height="40" as="geometry" />
        </mxCell>
        <mxCell id="Vh-mc57jUNbCQ79QE870-20" value="Operations" style="rounded=0;whiteSpace=wrap;html=1;" parent="1" vertex="1">
          <mxGeometry x="280" y="521" width="80" height="40" as="geometry" />
        </mxCell>
        <mxCell id="Vh-mc57jUNbCQ79QE870-21" value="Sales" style="rounded=0;whiteSpace=wrap;html=1;" parent="1" vertex="1">
          <mxGeometry x="400" y="521" width="80" height="40" as="geometry" />
        </mxCell>
        <mxCell id="Vh-mc57jUNbCQ79QE870-22" value="" style="endArrow=none;html=1;rounded=0;exitX=0.5;exitY=0;exitDx=0;exitDy=0;entryX=0;entryY=0.5;entryDx=0;entryDy=0;" parent="1" source="Vh-mc57jUNbCQ79QE870-19" target="Vh-mc57jUNbCQ79QE870-17" edge="1">
          <mxGeometry relative="1" as="geometry">
            <mxPoint x="230" y="541" as="sourcePoint" />
            <mxPoint x="390" y="541" as="targetPoint" />
          </mxGeometry>
        </mxCell>
        <mxCell id="Vh-mc57jUNbCQ79QE870-23" value="" style="endArrow=none;html=1;rounded=0;exitX=0.5;exitY=0;exitDx=0;exitDy=0;entryX=0.5;entryY=1;entryDx=0;entryDy=0;" parent="1" source="Vh-mc57jUNbCQ79QE870-20" target="Vh-mc57jUNbCQ79QE870-17" edge="1">
          <mxGeometry relative="1" as="geometry">
            <mxPoint x="230" y="541" as="sourcePoint" />
            <mxPoint x="390" y="541" as="targetPoint" />
          </mxGeometry>
        </mxCell>
        <mxCell id="Vh-mc57jUNbCQ79QE870-24" value="" style="endArrow=none;html=1;rounded=0;exitX=1;exitY=0.5;exitDx=0;exitDy=0;entryX=0.5;entryY=0;entryDx=0;entryDy=0;" parent="1" source="Vh-mc57jUNbCQ79QE870-17" target="Vh-mc57jUNbCQ79QE870-21" edge="1">
          <mxGeometry relative="1" as="geometry">
            <mxPoint x="340" y="471" as="sourcePoint" />
            <mxPoint x="500" y="471" as="targetPoint" />
          </mxGeometry>
        </mxCell>
        <mxCell id="Vh-mc57jUNbCQ79QE870-25" value="&quot;T&quot;" style="text;html=1;align=center;verticalAlign=middle;resizable=0;points=[];autosize=1;strokeColor=none;fillColor=none;" parent="1" vertex="1">
          <mxGeometry x="220" y="469" width="40" height="30" as="geometry" />
        </mxCell>
        <mxCell id="Vh-mc57jUNbCQ79QE870-26" value="&quot;O&quot;" style="text;html=1;align=center;verticalAlign=middle;resizable=0;points=[];autosize=1;strokeColor=none;fillColor=none;" parent="1" vertex="1">
          <mxGeometry x="310" y="489" width="40" height="30" as="geometry" />
        </mxCell>
        <mxCell id="Vh-mc57jUNbCQ79QE870-27" value="&quot;S&quot;" style="text;html=1;align=center;verticalAlign=middle;resizable=0;points=[];autosize=1;strokeColor=none;fillColor=none;" parent="1" vertex="1">
          <mxGeometry x="380" y="469" width="40" height="30" as="geometry" />
        </mxCell>
        <mxCell id="Vh-mc57jUNbCQ79QE870-28" value="Recruiter" style="swimlane;fontStyle=0;childLayout=stackLayout;horizontal=1;startSize=26;horizontalStack=0;resizeParent=1;resizeParentMax=0;resizeLast=0;collapsible=1;marginBottom=0;align=center;fontSize=14;" parent="1" vertex="1">
          <mxGeometry x="240" y="681" width="160" height="116" as="geometry" />
        </mxCell>
        <mxCell id="Vh-mc57jUNbCQ79QE870-29" value="&lt;b&gt;&lt;u&gt;Recruiter_ID&lt;/u&gt;&lt;/b&gt;" style="text;strokeColor=none;fillColor=none;spacingLeft=4;spacingRight=4;overflow=hidden;rotatable=0;points=[[0,0.5],[1,0.5]];portConstraint=eastwest;fontSize=12;whiteSpace=wrap;html=1;" parent="Vh-mc57jUNbCQ79QE870-28" vertex="1">
          <mxGeometry y="26" width="160" height="30" as="geometry" />
        </mxCell>
        <mxCell id="Vh-mc57jUNbCQ79QE870-72" value="Interview Schedule" style="text;strokeColor=none;fillColor=none;spacingLeft=4;spacingRight=4;overflow=hidden;rotatable=0;points=[[0,0.5],[1,0.5]];portConstraint=eastwest;fontSize=12;whiteSpace=wrap;html=1;" parent="Vh-mc57jUNbCQ79QE870-28" vertex="1">
          <mxGeometry y="56" width="160" height="30" as="geometry" />
        </mxCell>
        <mxCell id="Vh-mc57jUNbCQ79QE870-30" value="&lt;b&gt;Recruiter_Type&lt;/b&gt;" style="text;strokeColor=none;fillColor=none;spacingLeft=4;spacingRight=4;overflow=hidden;rotatable=0;points=[[0,0.5],[1,0.5]];portConstraint=eastwest;fontSize=12;whiteSpace=wrap;html=1;" parent="Vh-mc57jUNbCQ79QE870-28" vertex="1">
          <mxGeometry y="86" width="160" height="30" as="geometry" />
        </mxCell>
        <mxCell id="Vh-mc57jUNbCQ79QE870-32" value="o" style="strokeWidth=2;html=1;shape=mxgraph.flowchart.start_2;whiteSpace=wrap;" parent="1" vertex="1">
          <mxGeometry x="160" y="830" width="40" height="40" as="geometry" />
        </mxCell>
        <mxCell id="Vh-mc57jUNbCQ79QE870-37" value="" style="shape=link;html=1;rounded=0;exitX=0.855;exitY=0.145;exitDx=0;exitDy=0;exitPerimeter=0;entryX=0;entryY=0.5;entryDx=0;entryDy=0;" parent="1" source="Vh-mc57jUNbCQ79QE870-32" edge="1" target="Vh-mc57jUNbCQ79QE870-30">
          <mxGeometry width="100" relative="1" as="geometry">
            <mxPoint x="200" y="837" as="sourcePoint" />
            <mxPoint x="200" y="797" as="targetPoint" />
          </mxGeometry>
        </mxCell>
        <mxCell id="Vh-mc57jUNbCQ79QE870-38" value="Recruiter_Type=" style="text;html=1;align=center;verticalAlign=middle;resizable=0;points=[];autosize=1;strokeColor=none;fillColor=none;" parent="1" vertex="1">
          <mxGeometry x="200" y="840" width="110" height="30" as="geometry" />
        </mxCell>
        <mxCell id="Vh-mc57jUNbCQ79QE870-40" value="Recruiting Manager" style="swimlane;fontStyle=0;childLayout=stackLayout;horizontal=1;startSize=26;horizontalStack=0;resizeParent=1;resizeParentMax=0;resizeLast=0;collapsible=1;marginBottom=0;align=center;fontSize=14;" parent="1" vertex="1">
          <mxGeometry y="681" width="160" height="86" as="geometry" />
        </mxCell>
        <mxCell id="Vh-mc57jUNbCQ79QE870-41" value="&lt;b&gt;&lt;u&gt;Manager_ID&lt;/u&gt;&lt;/b&gt;" style="text;strokeColor=none;fillColor=none;spacingLeft=4;spacingRight=4;overflow=hidden;rotatable=0;points=[[0,0.5],[1,0.5]];portConstraint=eastwest;fontSize=12;whiteSpace=wrap;html=1;" parent="Vh-mc57jUNbCQ79QE870-40" vertex="1">
          <mxGeometry y="26" width="160" height="30" as="geometry" />
        </mxCell>
        <mxCell id="Vh-mc57jUNbCQ79QE870-42" value="&lt;b&gt;Recruiter_Type&lt;/b&gt;" style="text;strokeColor=none;fillColor=none;spacingLeft=4;spacingRight=4;overflow=hidden;rotatable=0;points=[[0,0.5],[1,0.5]];portConstraint=eastwest;fontSize=12;whiteSpace=wrap;html=1;" parent="Vh-mc57jUNbCQ79QE870-40" vertex="1">
          <mxGeometry y="56" width="160" height="30" as="geometry" />
        </mxCell>
        <mxCell id="Vh-mc57jUNbCQ79QE870-45" value="" style="endArrow=ERzeroToMany;html=1;rounded=0;exitX=1;exitY=0.5;exitDx=0;exitDy=0;entryX=0;entryY=0.5;entryDx=0;entryDy=0;startArrow=ERmandOne;startFill=0;endFill=0;" parent="1" source="Vh-mc57jUNbCQ79QE870-41" target="Vh-mc57jUNbCQ79QE870-29" edge="1">
          <mxGeometry relative="1" as="geometry">
            <mxPoint x="150" y="701" as="sourcePoint" />
            <mxPoint x="310" y="701" as="targetPoint" />
          </mxGeometry>
        </mxCell>
        <mxCell id="Vh-mc57jUNbCQ79QE870-46" value="Oversees" style="text;html=1;align=center;verticalAlign=middle;resizable=0;points=[];autosize=1;strokeColor=none;fillColor=none;" parent="1" vertex="1">
          <mxGeometry x="165" y="729" width="70" height="30" as="geometry" />
        </mxCell>
        <mxCell id="Vh-mc57jUNbCQ79QE870-48" value="" style="endArrow=ERzeroToMany;html=1;rounded=0;exitX=-0.011;exitY=0.07;exitDx=0;exitDy=0;entryX=0.992;entryY=0.134;entryDx=0;entryDy=0;startArrow=ERzeroToMany;startFill=0;endFill=0;exitPerimeter=0;entryPerimeter=0;" parent="1" source="Vh-mc57jUNbCQ79QE870-1" target="Vh-mc57jUNbCQ79QE870-12" edge="1">
          <mxGeometry relative="1" as="geometry">
            <mxPoint x="300" y="241" as="sourcePoint" />
            <mxPoint x="460" y="241" as="targetPoint" />
          </mxGeometry>
        </mxCell>
        <mxCell id="Vh-mc57jUNbCQ79QE870-51" value="" style="endArrow=none;dashed=1;html=1;rounded=0;exitX=0.5;exitY=1;exitDx=0;exitDy=0;" parent="1" source="Vh-mc57jUNbCQ79QE870-52" edge="1">
          <mxGeometry width="50" height="50" relative="1" as="geometry">
            <mxPoint x="340" y="214" as="sourcePoint" />
            <mxPoint x="460" y="294" as="targetPoint" />
          </mxGeometry>
        </mxCell>
        <mxCell id="Vh-mc57jUNbCQ79QE870-52" value="Req_ID&lt;br&gt;Amount of Jobs" style="rounded=1;whiteSpace=wrap;html=1;" parent="1" vertex="1">
          <mxGeometry x="340" y="144" width="120" height="60" as="geometry" />
        </mxCell>
        <mxCell id="Vh-mc57jUNbCQ79QE870-53" value="Applied To" style="text;html=1;align=center;verticalAlign=middle;resizable=0;points=[];autosize=1;strokeColor=none;fillColor=none;" parent="1" vertex="1">
          <mxGeometry x="430" y="224" width="80" height="30" as="geometry" />
        </mxCell>
        <mxCell id="Vh-mc57jUNbCQ79QE870-57" value="Hiring Manager" style="swimlane;fontStyle=0;childLayout=stackLayout;horizontal=1;startSize=26;horizontalStack=0;resizeParent=1;resizeParentMax=0;resizeLast=0;collapsible=1;marginBottom=0;align=center;fontSize=14;" parent="1" vertex="1">
          <mxGeometry x="690" y="664" width="160" height="116" as="geometry" />
        </mxCell>
        <mxCell id="Vh-mc57jUNbCQ79QE870-58" value="&lt;b&gt;&lt;u&gt;Manager_ID&lt;/u&gt;&lt;/b&gt;" style="text;strokeColor=none;fillColor=none;spacingLeft=4;spacingRight=4;overflow=hidden;rotatable=0;points=[[0,0.5],[1,0.5]];portConstraint=eastwest;fontSize=12;whiteSpace=wrap;html=1;" parent="Vh-mc57jUNbCQ79QE870-57" vertex="1">
          <mxGeometry y="26" width="160" height="30" as="geometry" />
        </mxCell>
        <mxCell id="Vh-mc57jUNbCQ79QE870-59" value="Department" style="text;strokeColor=none;fillColor=none;spacingLeft=4;spacingRight=4;overflow=hidden;rotatable=0;points=[[0,0.5],[1,0.5]];portConstraint=eastwest;fontSize=12;whiteSpace=wrap;html=1;" parent="Vh-mc57jUNbCQ79QE870-57" vertex="1">
          <mxGeometry y="56" width="160" height="30" as="geometry" />
        </mxCell>
        <mxCell id="Vh-mc57jUNbCQ79QE870-73" value="Interview Decision" style="text;strokeColor=none;fillColor=none;spacingLeft=4;spacingRight=4;overflow=hidden;rotatable=0;points=[[0,0.5],[1,0.5]];portConstraint=eastwest;fontSize=12;whiteSpace=wrap;html=1;" parent="Vh-mc57jUNbCQ79QE870-57" vertex="1">
          <mxGeometry y="86" width="160" height="30" as="geometry" />
        </mxCell>
        <mxCell id="Vh-mc57jUNbCQ79QE870-70" style="edgeStyle=orthogonalEdgeStyle;rounded=0;orthogonalLoop=1;jettySize=auto;html=1;exitX=1;exitY=0.112;exitDx=0;exitDy=0;entryX=0.5;entryY=0;entryDx=0;entryDy=0;startArrow=ERzeroToMany;startFill=0;endArrow=ERmandOne;endFill=0;exitPerimeter=0;" parent="1" source="Vh-mc57jUNbCQ79QE870-74" target="Vh-mc57jUNbCQ79QE870-57" edge="1">
          <mxGeometry relative="1" as="geometry">
            <mxPoint x="610.0000000000039" y="637.5" as="sourcePoint" />
          </mxGeometry>
        </mxCell>
        <mxCell id="Vh-mc57jUNbCQ79QE870-71" style="edgeStyle=orthogonalEdgeStyle;rounded=0;orthogonalLoop=1;jettySize=auto;html=1;exitX=0;exitY=0.25;exitDx=0;exitDy=0;entryX=1;entryY=0.25;entryDx=0;entryDy=0;startArrow=ERzeroToMany;startFill=0;endArrow=ERmandOne;endFill=0;" parent="1" source="Vh-mc57jUNbCQ79QE870-74" target="Vh-mc57jUNbCQ79QE870-28" edge="1">
          <mxGeometry relative="1" as="geometry">
            <mxPoint x="469.99999999999613" y="637.5" as="sourcePoint" />
          </mxGeometry>
        </mxCell>
        <mxCell id="Vh-mc57jUNbCQ79QE870-74" value="Interview" style="swimlane;fontStyle=0;childLayout=stackLayout;horizontal=1;startSize=26;horizontalStack=0;resizeParent=1;resizeParentMax=0;resizeLast=0;collapsible=1;marginBottom=0;align=center;fontSize=14;" parent="1" vertex="1">
          <mxGeometry x="460" y="571" width="160" height="176" as="geometry" />
        </mxCell>
        <mxCell id="2SU2AX19pzLJlA-XiI4f-12" value="&lt;b&gt;&lt;u&gt;Interview_ID&lt;/u&gt;&lt;/b&gt;" style="text;strokeColor=none;fillColor=none;spacingLeft=4;spacingRight=4;overflow=hidden;rotatable=0;points=[[0,0.5],[1,0.5]];portConstraint=eastwest;fontSize=12;whiteSpace=wrap;html=1;" vertex="1" parent="Vh-mc57jUNbCQ79QE870-74">
          <mxGeometry y="26" width="160" height="30" as="geometry" />
        </mxCell>
        <mxCell id="2SU2AX19pzLJlA-XiI4f-13" value="Candidate_Name" style="text;strokeColor=none;fillColor=none;spacingLeft=4;spacingRight=4;overflow=hidden;rotatable=0;points=[[0,0.5],[1,0.5]];portConstraint=eastwest;fontSize=12;whiteSpace=wrap;html=1;" vertex="1" parent="Vh-mc57jUNbCQ79QE870-74">
          <mxGeometry y="56" width="160" height="30" as="geometry" />
        </mxCell>
        <mxCell id="Vh-mc57jUNbCQ79QE870-75" value="Interview Decision" style="text;strokeColor=none;fillColor=none;spacingLeft=4;spacingRight=4;overflow=hidden;rotatable=0;points=[[0,0.5],[1,0.5]];portConstraint=eastwest;fontSize=12;whiteSpace=wrap;html=1;" parent="Vh-mc57jUNbCQ79QE870-74" vertex="1">
          <mxGeometry y="86" width="160" height="30" as="geometry" />
        </mxCell>
        <mxCell id="Vh-mc57jUNbCQ79QE870-76" value="Interview Schedule" style="text;strokeColor=none;fillColor=none;spacingLeft=4;spacingRight=4;overflow=hidden;rotatable=0;points=[[0,0.5],[1,0.5]];portConstraint=eastwest;fontSize=12;whiteSpace=wrap;html=1;" parent="Vh-mc57jUNbCQ79QE870-74" vertex="1">
          <mxGeometry y="116" width="160" height="30" as="geometry" />
        </mxCell>
        <mxCell id="Vh-mc57jUNbCQ79QE870-77" value="&lt;b&gt;Job Offer Details&lt;/b&gt;" style="text;strokeColor=none;fillColor=none;spacingLeft=4;spacingRight=4;overflow=hidden;rotatable=0;points=[[0,0.5],[1,0.5]];portConstraint=eastwest;fontSize=12;whiteSpace=wrap;html=1;" parent="Vh-mc57jUNbCQ79QE870-74" vertex="1">
          <mxGeometry y="146" width="160" height="30" as="geometry" />
        </mxCell>
        <mxCell id="Vh-mc57jUNbCQ79QE870-80" value="Job Offer" style="swimlane;fontStyle=0;childLayout=stackLayout;horizontal=1;startSize=26;horizontalStack=0;resizeParent=1;resizeParentMax=0;resizeLast=0;collapsible=1;marginBottom=0;align=center;fontSize=14;" parent="1" vertex="1">
          <mxGeometry x="450" y="791" width="160" height="176" as="geometry" />
        </mxCell>
        <mxCell id="Vh-mc57jUNbCQ79QE870-81" value="&lt;b&gt;&lt;u&gt;Req_ID&lt;/u&gt;&lt;/b&gt;" style="text;strokeColor=none;fillColor=none;spacingLeft=4;spacingRight=4;overflow=hidden;rotatable=0;points=[[0,0.5],[1,0.5]];portConstraint=eastwest;fontSize=12;whiteSpace=wrap;html=1;" parent="Vh-mc57jUNbCQ79QE870-80" vertex="1">
          <mxGeometry y="26" width="160" height="30" as="geometry" />
        </mxCell>
        <mxCell id="Vh-mc57jUNbCQ79QE870-85" value="&lt;b&gt;&lt;u&gt;Manager_ID&lt;/u&gt;&lt;/b&gt;" style="text;strokeColor=none;fillColor=none;spacingLeft=4;spacingRight=4;overflow=hidden;rotatable=0;points=[[0,0.5],[1,0.5]];portConstraint=eastwest;fontSize=12;whiteSpace=wrap;html=1;" parent="Vh-mc57jUNbCQ79QE870-80" vertex="1">
          <mxGeometry y="56" width="160" height="30" as="geometry" />
        </mxCell>
        <mxCell id="Vh-mc57jUNbCQ79QE870-83" value="&lt;b&gt;&lt;u&gt;Candidate_Name&lt;/u&gt;&lt;/b&gt;" style="text;strokeColor=none;fillColor=none;spacingLeft=4;spacingRight=4;overflow=hidden;rotatable=0;points=[[0,0.5],[1,0.5]];portConstraint=eastwest;fontSize=12;whiteSpace=wrap;html=1;" parent="Vh-mc57jUNbCQ79QE870-80" vertex="1">
          <mxGeometry y="86" width="160" height="30" as="geometry" />
        </mxCell>
        <mxCell id="Vh-mc57jUNbCQ79QE870-84" value="Department" style="text;strokeColor=none;fillColor=none;spacingLeft=4;spacingRight=4;overflow=hidden;rotatable=0;points=[[0,0.5],[1,0.5]];portConstraint=eastwest;fontSize=12;whiteSpace=wrap;html=1;" parent="Vh-mc57jUNbCQ79QE870-80" vertex="1">
          <mxGeometry y="116" width="160" height="30" as="geometry" />
        </mxCell>
        <mxCell id="Vh-mc57jUNbCQ79QE870-82" value="Job Offer Details" style="text;strokeColor=none;fillColor=none;spacingLeft=4;spacingRight=4;overflow=hidden;rotatable=0;points=[[0,0.5],[1,0.5]];portConstraint=eastwest;fontSize=12;whiteSpace=wrap;html=1;" parent="Vh-mc57jUNbCQ79QE870-80" vertex="1">
          <mxGeometry y="146" width="160" height="30" as="geometry" />
        </mxCell>
        <mxCell id="Vh-mc57jUNbCQ79QE870-86" style="edgeStyle=orthogonalEdgeStyle;rounded=0;orthogonalLoop=1;jettySize=auto;html=1;exitX=0;exitY=0.5;exitDx=0;exitDy=0;entryX=1;entryY=0.5;entryDx=0;entryDy=0;endArrow=ERmandOne;endFill=0;startArrow=ERzeroToMany;startFill=0;" parent="1" source="Vh-mc57jUNbCQ79QE870-81" target="Vh-mc57jUNbCQ79QE870-30" edge="1">
          <mxGeometry relative="1" as="geometry" />
        </mxCell>
        <mxCell id="Vh-mc57jUNbCQ79QE870-87" style="edgeStyle=orthogonalEdgeStyle;rounded=0;orthogonalLoop=1;jettySize=auto;html=1;exitX=1;exitY=0.5;exitDx=0;exitDy=0;entryX=0;entryY=0.5;entryDx=0;entryDy=0;endArrow=ERmandOne;endFill=0;startArrow=ERzeroToOne;startFill=0;" parent="1" source="Vh-mc57jUNbCQ79QE870-81" target="Vh-mc57jUNbCQ79QE870-73" edge="1">
          <mxGeometry relative="1" as="geometry" />
        </mxCell>
        <mxCell id="Vh-mc57jUNbCQ79QE870-88" style="edgeStyle=orthogonalEdgeStyle;rounded=0;orthogonalLoop=1;jettySize=auto;html=1;exitX=0.5;exitY=0;exitDx=0;exitDy=0;entryX=0.433;entryY=0.967;entryDx=0;entryDy=0;entryPerimeter=0;startArrow=ERzeroToOne;startFill=0;endArrow=ERzeroToOne;endFill=0;" parent="1" source="Vh-mc57jUNbCQ79QE870-80" target="Vh-mc57jUNbCQ79QE870-77" edge="1">
          <mxGeometry relative="1" as="geometry" />
        </mxCell>
        <mxCell id="Vh-mc57jUNbCQ79QE870-89" style="edgeStyle=orthogonalEdgeStyle;rounded=0;orthogonalLoop=1;jettySize=auto;html=1;exitX=1;exitY=0.5;exitDx=0;exitDy=0;entryX=1;entryY=0.5;entryDx=0;entryDy=0;startArrow=ERzeroToOne;startFill=0;endArrow=ERmandOne;endFill=0;" parent="1" source="Vh-mc57jUNbCQ79QE870-2" target="Vh-mc57jUNbCQ79QE870-83" edge="1">
          <mxGeometry relative="1" as="geometry" />
        </mxCell>
        <mxCell id="Vh-mc57jUNbCQ79QE870-91" value="" style="endArrow=ERzeroToMany;html=1;rounded=0;exitX=0.383;exitY=1.027;exitDx=0;exitDy=0;exitPerimeter=0;startArrow=ERzeroToMany;startFill=0;endFill=0;entryX=0.63;entryY=0.003;entryDx=0;entryDy=0;entryPerimeter=0;" parent="1" source="Vh-mc57jUNbCQ79QE870-50" target="Vh-mc57jUNbCQ79QE870-74" edge="1">
          <mxGeometry relative="1" as="geometry">
            <mxPoint x="520" y="534" as="sourcePoint" />
            <mxPoint x="560" y="594" as="targetPoint" />
          </mxGeometry>
        </mxCell>
        <mxCell id="Vh-mc57jUNbCQ79QE870-92" value="Schedules" style="text;html=1;align=center;verticalAlign=middle;resizable=0;points=[];autosize=1;strokeColor=none;fillColor=none;" parent="1" vertex="1">
          <mxGeometry x="360" y="644" width="80" height="30" as="geometry" />
        </mxCell>
        <mxCell id="Vh-mc57jUNbCQ79QE870-93" value="Conducts" style="text;html=1;align=center;verticalAlign=middle;resizable=0;points=[];autosize=1;strokeColor=none;fillColor=none;" parent="1" vertex="1">
          <mxGeometry x="770" y="611" width="70" height="30" as="geometry" />
        </mxCell>
        <mxCell id="Vh-mc57jUNbCQ79QE870-94" value="Offers" style="text;html=1;align=center;verticalAlign=middle;resizable=0;points=[];autosize=1;strokeColor=none;fillColor=none;" parent="1" vertex="1">
          <mxGeometry x="600" y="750" width="60" height="30" as="geometry" />
        </mxCell>
        <mxCell id="Vh-mc57jUNbCQ79QE870-98" value="If Offered" style="text;html=1;align=center;verticalAlign=middle;resizable=0;points=[];autosize=1;strokeColor=none;fillColor=none;" parent="1" vertex="1">
          <mxGeometry x="680" y="459" width="70" height="30" as="geometry" />
        </mxCell>
        <mxCell id="2SU2AX19pzLJlA-XiI4f-1" value="" style="shape=link;html=1;rounded=0;exitX=0.145;exitY=0.145;exitDx=0;exitDy=0;exitPerimeter=0;entryX=0.427;entryY=1.013;entryDx=0;entryDy=0;entryPerimeter=0;" edge="1" parent="1" source="Vh-mc57jUNbCQ79QE870-32" target="Vh-mc57jUNbCQ79QE870-42">
          <mxGeometry width="100" relative="1" as="geometry">
            <mxPoint x="165" y="834" as="sourcePoint" />
            <mxPoint x="211" y="780" as="targetPoint" />
          </mxGeometry>
        </mxCell>
        <mxCell id="2SU2AX19pzLJlA-XiI4f-3" value="Tech" style="rounded=0;whiteSpace=wrap;html=1;" vertex="1" parent="1">
          <mxGeometry x="20" y="916" width="80" height="40" as="geometry" />
        </mxCell>
        <mxCell id="2SU2AX19pzLJlA-XiI4f-4" value="Operations" style="rounded=0;whiteSpace=wrap;html=1;" vertex="1" parent="1">
          <mxGeometry x="140" y="916" width="80" height="40" as="geometry" />
        </mxCell>
        <mxCell id="2SU2AX19pzLJlA-XiI4f-5" value="Sales" style="rounded=0;whiteSpace=wrap;html=1;" vertex="1" parent="1">
          <mxGeometry x="260" y="916" width="80" height="40" as="geometry" />
        </mxCell>
        <mxCell id="2SU2AX19pzLJlA-XiI4f-6" value="" style="endArrow=none;html=1;rounded=0;exitX=0.5;exitY=0;exitDx=0;exitDy=0;entryX=0;entryY=0.5;entryDx=0;entryDy=0;" edge="1" parent="1" source="2SU2AX19pzLJlA-XiI4f-3">
          <mxGeometry relative="1" as="geometry">
            <mxPoint x="90" y="936" as="sourcePoint" />
            <mxPoint x="160" y="856" as="targetPoint" />
          </mxGeometry>
        </mxCell>
        <mxCell id="2SU2AX19pzLJlA-XiI4f-7" value="" style="endArrow=none;html=1;rounded=0;exitX=0.5;exitY=0;exitDx=0;exitDy=0;entryX=0.5;entryY=1;entryDx=0;entryDy=0;entryPerimeter=0;" edge="1" parent="1" source="2SU2AX19pzLJlA-XiI4f-4" target="Vh-mc57jUNbCQ79QE870-32">
          <mxGeometry relative="1" as="geometry">
            <mxPoint x="90" y="936" as="sourcePoint" />
            <mxPoint x="180" y="876" as="targetPoint" />
          </mxGeometry>
        </mxCell>
        <mxCell id="2SU2AX19pzLJlA-XiI4f-8" value="" style="endArrow=none;html=1;rounded=0;exitX=1;exitY=0.5;exitDx=0;exitDy=0;entryX=0.5;entryY=0;entryDx=0;entryDy=0;" edge="1" parent="1" target="2SU2AX19pzLJlA-XiI4f-5">
          <mxGeometry relative="1" as="geometry">
            <mxPoint x="200" y="856" as="sourcePoint" />
            <mxPoint x="360" y="866" as="targetPoint" />
          </mxGeometry>
        </mxCell>
        <mxCell id="2SU2AX19pzLJlA-XiI4f-9" value="&quot;T&quot;" style="text;html=1;align=center;verticalAlign=middle;resizable=0;points=[];autosize=1;strokeColor=none;fillColor=none;" vertex="1" parent="1">
          <mxGeometry x="80" y="864" width="40" height="30" as="geometry" />
        </mxCell>
        <mxCell id="2SU2AX19pzLJlA-XiI4f-10" value="&quot;O&quot;" style="text;html=1;align=center;verticalAlign=middle;resizable=0;points=[];autosize=1;strokeColor=none;fillColor=none;" vertex="1" parent="1">
          <mxGeometry x="170" y="884" width="40" height="30" as="geometry" />
        </mxCell>
        <mxCell id="2SU2AX19pzLJlA-XiI4f-11" value="&quot;S&quot;" style="text;html=1;align=center;verticalAlign=middle;resizable=0;points=[];autosize=1;strokeColor=none;fillColor=none;" vertex="1" parent="1">
          <mxGeometry x="240" y="864" width="40" height="30" as="geometry" />
        </mxCell>
      </root>
    </mxGraphModel>
  </diagram>
</mxfile>
